<mxfile host="app.diagrams.net" agent="Mozilla/5.0 (Windows NT 10.0; Win64; x64) AppleWebKit/537.36 (KHTML, like Gecko) Chrome/141.0.0.0 Safari/537.36 Edg/141.0.0.0" version="28.2.8">
  <diagram name="Page-1" id="TrdviOrZt5CeIV5VSz-1">
    <mxGraphModel dx="985" dy="543" grid="1" gridSize="10" guides="1" tooltips="1" connect="1" arrows="1" fold="1" page="1" pageScale="1" pageWidth="850" pageHeight="1100" math="0" shadow="0">
      <root>
        <mxCell id="0" />
        <mxCell id="1" parent="0" />
        <mxCell id="n-DrH70tRHZMEgrpOk3x-4" style="edgeStyle=orthogonalEdgeStyle;rounded=0;orthogonalLoop=1;jettySize=auto;html=1;exitX=0.5;exitY=1;exitDx=0;exitDy=0;exitPerimeter=0;entryX=0.5;entryY=0;entryDx=0;entryDy=0;" edge="1" parent="1" source="n-DrH70tRHZMEgrpOk3x-1" target="n-DrH70tRHZMEgrpOk3x-3">
          <mxGeometry relative="1" as="geometry" />
        </mxCell>
        <mxCell id="n-DrH70tRHZMEgrpOk3x-1" value="&lt;h1&gt;Start&lt;/h1&gt;" style="strokeWidth=2;html=1;shape=mxgraph.flowchart.start_2;whiteSpace=wrap;fillColor=#f5f5f5;fontColor=#333333;strokeColor=#666666;" vertex="1" parent="1">
          <mxGeometry x="375" y="30" width="100" height="100" as="geometry" />
        </mxCell>
        <mxCell id="n-DrH70tRHZMEgrpOk3x-7" style="edgeStyle=orthogonalEdgeStyle;rounded=0;orthogonalLoop=1;jettySize=auto;html=1;exitX=0.5;exitY=1;exitDx=0;exitDy=0;entryX=0.5;entryY=0;entryDx=0;entryDy=0;" edge="1" parent="1" source="n-DrH70tRHZMEgrpOk3x-3" target="n-DrH70tRHZMEgrpOk3x-5">
          <mxGeometry relative="1" as="geometry" />
        </mxCell>
        <mxCell id="n-DrH70tRHZMEgrpOk3x-3" value="Browse Courses" style="rounded=1;whiteSpace=wrap;html=1;absoluteArcSize=1;arcSize=14;strokeWidth=2;fontStyle=1;fontSize=20;fillColor=#f5f5f5;fontColor=#333333;strokeColor=#666666;" vertex="1" parent="1">
          <mxGeometry x="320" y="180" width="210" height="60" as="geometry" />
        </mxCell>
        <mxCell id="n-DrH70tRHZMEgrpOk3x-9" style="edgeStyle=orthogonalEdgeStyle;rounded=0;orthogonalLoop=1;jettySize=auto;html=1;exitX=0.5;exitY=1;exitDx=0;exitDy=0;" edge="1" parent="1" source="n-DrH70tRHZMEgrpOk3x-5" target="n-DrH70tRHZMEgrpOk3x-8">
          <mxGeometry relative="1" as="geometry" />
        </mxCell>
        <mxCell id="n-DrH70tRHZMEgrpOk3x-5" value="Select Course" style="rounded=1;whiteSpace=wrap;html=1;absoluteArcSize=1;arcSize=14;strokeWidth=2;fontSize=20;fontStyle=1;fillColor=#f5f5f5;fontColor=#333333;strokeColor=#666666;" vertex="1" parent="1">
          <mxGeometry x="320" y="280" width="210" height="60" as="geometry" />
        </mxCell>
        <mxCell id="n-DrH70tRHZMEgrpOk3x-21" style="edgeStyle=orthogonalEdgeStyle;rounded=0;orthogonalLoop=1;jettySize=auto;html=1;exitX=0.5;exitY=1;exitDx=0;exitDy=0;exitPerimeter=0;entryX=0.5;entryY=0;entryDx=0;entryDy=0;" edge="1" parent="1" source="n-DrH70tRHZMEgrpOk3x-8" target="n-DrH70tRHZMEgrpOk3x-18">
          <mxGeometry relative="1" as="geometry">
            <mxPoint x="600" y="620" as="targetPoint" />
            <Array as="points">
              <mxPoint x="425" y="560" />
              <mxPoint x="605" y="560" />
            </Array>
          </mxGeometry>
        </mxCell>
        <mxCell id="n-DrH70tRHZMEgrpOk3x-8" value="Check Enrolled" style="strokeWidth=2;html=1;shape=mxgraph.flowchart.decision;whiteSpace=wrap;fontSize=15;fontStyle=1;fillColor=#f5f5f5;fontColor=#333333;strokeColor=#666666;" vertex="1" parent="1">
          <mxGeometry x="363" y="400" width="125" height="100" as="geometry" />
        </mxCell>
        <mxCell id="n-DrH70tRHZMEgrpOk3x-11" value="" style="endArrow=classic;html=1;rounded=0;exitX=0.5;exitY=1;exitDx=0;exitDy=0;exitPerimeter=0;" edge="1" parent="1" source="n-DrH70tRHZMEgrpOk3x-8">
          <mxGeometry width="50" height="50" relative="1" as="geometry">
            <mxPoint x="200" y="490" as="sourcePoint" />
            <mxPoint x="280" y="640" as="targetPoint" />
            <Array as="points">
              <mxPoint x="426" y="560" />
              <mxPoint x="280" y="560" />
            </Array>
          </mxGeometry>
        </mxCell>
        <mxCell id="n-DrH70tRHZMEgrpOk3x-13" value="&lt;div&gt;No&lt;/div&gt;" style="text;strokeColor=none;fillColor=none;spacingLeft=4;spacingRight=4;overflow=hidden;rotatable=0;points=[[0,0.5],[1,0.5]];portConstraint=eastwest;fontSize=12;whiteSpace=wrap;html=1;" vertex="1" parent="1">
          <mxGeometry x="280" y="530" width="40" height="30" as="geometry" />
        </mxCell>
        <mxCell id="n-DrH70tRHZMEgrpOk3x-14" value="Yes" style="text;strokeColor=none;fillColor=none;spacingLeft=4;spacingRight=4;overflow=hidden;rotatable=0;points=[[0,0.5],[1,0.5]];portConstraint=eastwest;fontSize=12;whiteSpace=wrap;html=1;" vertex="1" parent="1">
          <mxGeometry x="560" y="530" width="40" height="30" as="geometry" />
        </mxCell>
        <mxCell id="n-DrH70tRHZMEgrpOk3x-15" value="Show Message that the course is already exists" style="rounded=1;whiteSpace=wrap;html=1;absoluteArcSize=1;arcSize=14;strokeWidth=2;fontSize=15;fillColor=#f5f5f5;fontColor=#333333;strokeColor=#666666;" vertex="1" parent="1">
          <mxGeometry x="190" y="640" width="210" height="60" as="geometry" />
        </mxCell>
        <mxCell id="n-DrH70tRHZMEgrpOk3x-16" value="&lt;h1&gt;End&lt;/h1&gt;" style="strokeWidth=2;html=1;shape=mxgraph.flowchart.start_2;whiteSpace=wrap;fillColor=#f5f5f5;fontColor=#333333;strokeColor=#666666;" vertex="1" parent="1">
          <mxGeometry x="375.5" y="1120" width="100" height="100" as="geometry" />
        </mxCell>
        <mxCell id="n-DrH70tRHZMEgrpOk3x-17" style="edgeStyle=orthogonalEdgeStyle;rounded=0;orthogonalLoop=1;jettySize=auto;html=1;exitX=0.5;exitY=1;exitDx=0;exitDy=0;entryX=0.5;entryY=0;entryDx=0;entryDy=0;entryPerimeter=0;" edge="1" parent="1" source="n-DrH70tRHZMEgrpOk3x-15" target="n-DrH70tRHZMEgrpOk3x-16">
          <mxGeometry relative="1" as="geometry">
            <Array as="points">
              <mxPoint x="280" y="700" />
              <mxPoint x="280" y="1080" />
              <mxPoint x="425" y="1080" />
            </Array>
          </mxGeometry>
        </mxCell>
        <mxCell id="n-DrH70tRHZMEgrpOk3x-20" style="edgeStyle=orthogonalEdgeStyle;rounded=0;orthogonalLoop=1;jettySize=auto;html=1;exitX=0.5;exitY=1;exitDx=0;exitDy=0;entryX=0.5;entryY=0;entryDx=0;entryDy=0;" edge="1" parent="1" source="n-DrH70tRHZMEgrpOk3x-18" target="n-DrH70tRHZMEgrpOk3x-19">
          <mxGeometry relative="1" as="geometry" />
        </mxCell>
        <mxCell id="n-DrH70tRHZMEgrpOk3x-18" value="Register Student" style="rounded=1;whiteSpace=wrap;html=1;absoluteArcSize=1;arcSize=14;strokeWidth=2;fontSize=20;fillColor=#f5f5f5;fontColor=#333333;strokeColor=#666666;" vertex="1" parent="1">
          <mxGeometry x="500" y="690" width="210" height="60" as="geometry" />
        </mxCell>
        <mxCell id="n-DrH70tRHZMEgrpOk3x-23" style="edgeStyle=orthogonalEdgeStyle;rounded=0;orthogonalLoop=1;jettySize=auto;html=1;exitX=0.5;exitY=1;exitDx=0;exitDy=0;entryX=0.5;entryY=0;entryDx=0;entryDy=0;" edge="1" parent="1" source="n-DrH70tRHZMEgrpOk3x-19" target="n-DrH70tRHZMEgrpOk3x-22">
          <mxGeometry relative="1" as="geometry" />
        </mxCell>
        <mxCell id="n-DrH70tRHZMEgrpOk3x-19" value="Confirm Enrollment" style="rounded=1;whiteSpace=wrap;html=1;absoluteArcSize=1;arcSize=14;strokeWidth=2;fontSize=20;fontStyle=0;fillColor=#f5f5f5;fontColor=#333333;strokeColor=#666666;" vertex="1" parent="1">
          <mxGeometry x="500" y="820" width="210" height="60" as="geometry" />
        </mxCell>
        <mxCell id="n-DrH70tRHZMEgrpOk3x-22" value="Show course content" style="rounded=1;whiteSpace=wrap;html=1;absoluteArcSize=1;arcSize=14;strokeWidth=2;fillColor=#f5f5f5;fontColor=#333333;strokeColor=#666666;fontSize=20;" vertex="1" parent="1">
          <mxGeometry x="500" y="930" width="210" height="60" as="geometry" />
        </mxCell>
        <mxCell id="n-DrH70tRHZMEgrpOk3x-24" style="edgeStyle=orthogonalEdgeStyle;rounded=0;orthogonalLoop=1;jettySize=auto;html=1;exitX=0.5;exitY=1;exitDx=0;exitDy=0;entryX=0.5;entryY=0;entryDx=0;entryDy=0;entryPerimeter=0;" edge="1" parent="1" source="n-DrH70tRHZMEgrpOk3x-22" target="n-DrH70tRHZMEgrpOk3x-16">
          <mxGeometry relative="1" as="geometry">
            <Array as="points">
              <mxPoint x="605" y="1080" />
              <mxPoint x="425" y="1080" />
            </Array>
          </mxGeometry>
        </mxCell>
      </root>
    </mxGraphModel>
  </diagram>
</mxfile>
